<?xml version="1.0" encoding="UTF-8"?>
<svg id="Capa_1" data-name="Capa 1" xmlns="http://www.w3.org/2000/svg" viewBox="0 0 500 500">
  <defs>
    <style>
      .cls-1 {
        fill-rule: evenodd;
      }
    </style>
  </defs>
  <path class="cls-1" d="m177.4,260.46c-1.6.89-3.52,1.37-7.52,1.37h-1.5v-23.78h1.21c4.21,0,6.32.48,8.22,1.65,3.12,1.96,4.62,6.14,4.62,10.33-.01,4.57-1.71,8.59-5.03,10.43Zm12.74-32.85c-4.72-2.54-10.43-3.91-21.59-3.91h-19.38v52.47h18.68c12.14,0,18.77-1.55,23.88-4.69,6.93-4.21,10.85-12.28,10.85-21.55s-4.72-18.15-12.45-22.32Z"/>
  <polygon class="cls-1" points="367.56 244.47 367.56 236.27 393.96 236.27 393.96 223.7 348.39 223.7 348.39 276.17 394.65 276.17 394.65 263.89 367.56 263.89 367.56 255.69 388.23 255.69 388.23 244.47 367.56 244.47"/>
  <rect x="23.88" y="223.7" width="19.58" height="52.47"/>
  <rect x="226.48" y="223.7" width="19.57" height="52.47"/>
  <polygon class="cls-1" points="89.43 256.1 122.45 277.94 122.45 223.71 103.29 223.71 103.29 243.52 70.25 222.06 70.25 276.18 89.43 276.18 89.43 256.1"/>
  <polygon class="cls-1" points="271.35 223.71 271.35 238.53 287.42 238.53 287.42 276.18 306.59 276.18 306.59 238.53 323.47 238.53 323.47 223.71 271.35 223.71"/>
  <polygon class="cls-1" points="444.39 263 453.04 276.18 476.12 276.18 456.16 249.85 476.02 223.72 452.93 223.72 444.39 236.49 435.87 223.72 412.78 223.72 432.66 249.94 412.68 276.18 435.76 276.18 444.39 263"/>
</svg>